<svg width="84" height="84" viewBox="0 0 84 84" fill="none" xmlns="http://www.w3.org/2000/svg">
<rect x="2" y="2" width="80" height="80" rx="15" fill="#F7F7F7" stroke="#4B346B" stroke-width="3"/>
<g clip-path="url(#clip0)">
<path d="M59.1407 23.4719C59.9969 22.6077 61.1603 22.1175 62.3768 22.1086C63.5933 22.0996 64.7638 22.5726 65.6326 23.424C66.5014 24.2755 66.9979 25.4363 67.0134 26.6527C67.029 27.8691 66.5624 29.0422 65.7157 29.9156L41.2157 60.5437C40.7948 60.9969 40.2869 61.3606 39.7223 61.6131C39.1578 61.8656 38.5481 62.0018 37.9297 62.0134C37.3114 62.0251 36.697 61.9121 36.1233 61.681C35.5496 61.45 35.0284 61.1057 34.5907 60.6687L18.3469 44.4312C17.4837 43.5676 16.999 42.3965 16.9993 41.1754C16.9996 39.9544 17.4849 38.7835 18.3485 37.9203C19.2121 37.0571 20.3833 36.5723 21.6043 36.5726C22.8253 36.5729 23.9962 37.0582 24.8594 37.9219L37.7063 50.7719L59.0188 23.6156C59.0575 23.5662 59.0993 23.5192 59.1438 23.475L59.1407 23.4719Z" fill="#69CE11"/>
</g>
<defs>
<clipPath id="clip0">
<rect width="50" height="50" fill="white" transform="translate(17 19)"/>
</clipPath>
</defs>
</svg>
